{
  "source": "C:\\Users\\Peter\\Desktop\\stuff\\MIUN\\quantitative_research\\video_compression\\videos\\BVI-HD\\BVI-HD_CDVL_videos\\ORIG\\Hamster_1920x1080_60fps.mp4",
  "output": "C:\\Users\\Peter\\Desktop\\stuff\\MIUN\\quantitative_research\\video_compression\\compressed_videos\\BVI-HD\\av1\\8\\Hamster_1920x1080_60fps_av1.mkv",
  "codec": "av1",
  "ok": "Input #0, mov,mp4,m4a,3gp,3g2,mj2, from 'C:\\Users\\Peter\\Desktop\\stuff\\MIUN\\quantitative_research\\video_compression\\videos\\BVI-HD\\BVI-HD_CDVL_videos\\ORIG\\Hamster_1920x1080_60fps.mp4':\n  Metadata:\n    major_brand     : isom\n    minor_version   : 512\n    compatible_brands: isomiso2avc1mp41\n    encoder         : Lavf54.28.101\n  Duration: 00:00:05.00, start: 0.000000, bitrate: 208485 kb/s\n  Stream #0:0[0x1](und): Video: h264 (High 4:4:4 Predictive) (avc1 / 0x31637661), yuv420p(progressive), 1920x1080, 208481 kb/s, 60 fps, 60 tbr, 60 tbn (default)\n    Metadata:\n      handler_name    : VideoHandler\n      vendor_id       : [0][0][0][0]\n[out#0/matroska @ 000001359cf69100] Codec AVOption b:a (set bitrate (in bits/s)) has not been used for any stream. The most likely reason is either wrong type (e.g. a video option with no video streams) or that it is a private option of some decoder which was not actually used for any stream.\nStream mapping:\n  Stream #0:0 -> #0:0 (h264 (native) -> av1 (libsvtav1))\nPress [q] to stop, [?] for help\nSvt[info]: -------------------------------------------\nSvt[info]: SVT [version]:\tSVT-AV1 Encoder Lib v3.1.0-19-g6ecfe8ec\nSvt[info]: SVT [build]  :\tGCC 15.2.0\t 64 bit\nSvt[info]: LIB Build date: Aug 17 2025 11:37:13\nSvt[info]: -------------------------------------------\nSvt[info]: Level of Parallelism: 5\nSvt[info]: Number of PPCS 93\nSvt[info]: [asm level on system : up to avx2]\nSvt[info]: [asm level selected : up to avx2]\nSvt[info]: -------------------------------------------\nSvt[info]: SVT [config]: main profile\ttier (auto)\tlevel (auto)\nSvt[info]: SVT [config]: width / height / fps numerator / fps denominator \t\t: 1920 / 1080 / 60 / 1\nSvt[info]: SVT [config]: bit-depth / color format \t\t\t\t\t: 8 / YUV420\nSvt[info]: SVT [config]: preset / tune / pred struct \t\t\t\t\t: 4 / PSNR / random access\nSvt[info]: SVT [config]: gop size / mini-gop size / key-frame type \t\t\t: 321 / 16 / key frame\nSvt[info]: SVT [config]: BRC mode / target bitrate (kbps)\t\t\t\t: VBR / 8000 \nSvt[info]: SVT [config]: AQ mode / Variance Boost \t\t\t\t\t: 2 / 0\nSvt[info]: SVT [config]: sharpness / luminance-based QP bias \t\t\t\t: 0 / 0\nSvt[info]: SVT [config]: QP scale compress strength \t\t\t\t\t: 0\nSvt[info]: -------------------------------------------\nOutput #0, matroska, to 'C:\\Users\\Peter\\Desktop\\stuff\\MIUN\\quantitative_research\\video_compression\\compressed_videos\\BVI-HD\\av1\\8\\Hamster_1920x1080_60fps_av1.mkv':\n  Metadata:\n    major_brand     : isom\n    minor_version   : 512\n    compatible_brands: isomiso2avc1mp41\n    encoder         : Lavf62.3.100\n  Stream #0:0(und): Video: av1 (AV01 / 0x31305641), yuv420p(tv, progressive), 1920x1080, q=2-31, 8000 kb/s, 60 fps, 1k tbn (default)\n    Metadata:\n      encoder         : Lavc62.11.100 libsvtav1\n      handler_name    : VideoHandler\n      vendor_id       : [0][0][0][0]\n    Side data:\n      cpb: bitrate max/min/avg: 0/0/8000000 buffer size: 8000000 vbv_delay: N/A\nframe=    0 fps=0.0 q=0.0 size=       0KiB time=N/A bitrate=N/A speed=N/A elapsed=0:00:01.09    \nframe=    0 fps=0.0 q=0.0 size=       0KiB time=N/A bitrate=N/A speed=N/A elapsed=0:00:01.63    \nframe=    0 fps=0.0 q=0.0 size=       0KiB time=N/A bitrate=N/A speed=N/A elapsed=0:00:02.22    \nframe=    0 fps=0.0 q=0.0 size=       0KiB time=N/A bitrate=N/A speed=N/A elapsed=0:00:02.80    \nframe=    0 fps=0.0 q=0.0 size=       0KiB time=N/A bitrate=N/A speed=N/A elapsed=0:00:03.37    \nframe=    0 fps=0.0 q=0.0 size=       0KiB time=N/A bitrate=N/A speed=N/A elapsed=0:00:03.93    \nframe=    0 fps=0.0 q=0.0 size=       0KiB time=N/A bitrate=N/A speed=N/A elapsed=0:00:04.59    \nframe=    0 fps=0.0 q=0.0 size=       0KiB time=N/A bitrate=N/A speed=N/A elapsed=0:00:05.17    \nframe=    1 fps=0.2 q=4.0 size=       1KiB time=00:00:00.00 bitrate=N/A speed=   0x elapsed=0:00:05.81    \nframe=    1 fps=0.2 q=4.0 size=       1KiB time=00:00:00.00 bitrate=N/A speed=   0x elapsed=0:00:06.48    \nframe=    1 fps=0.1 q=4.0 size=       1KiB time=00:00:00.00 bitrate=N/A speed=   0x elapsed=0:00:07.06    \nframe=    3 fps=0.4 q=23.0 size=       1KiB time=00:00:00.03 bitrate= 170.9kbits/s speed=0.00438x elapsed=0:00:07.61    \nframe=    5 fps=0.6 q=22.0 size=       1KiB time=00:00:00.06 bitrate=  85.4kbits/s speed=0.00811x elapsed=0:00:08.22    \nframe=    6 fps=0.7 q=26.0 size=       1KiB time=00:00:00.08 bitrate=  68.4kbits/s speed=0.00948x elapsed=0:00:08.78    \nframe=    9 fps=1.0 q=18.0 size=       1KiB time=00:00:00.13 bitrate=  42.7kbits/s speed=0.0143x elapsed=0:00:09.31    \nframe=   11 fps=1.1 q=20.0 size=       1KiB time=00:00:00.16 bitrate=  34.2kbits/s speed=0.0169x elapsed=0:00:09.84    \nframe=   14 fps=1.3 q=27.0 size=       1KiB time=00:00:00.21 bitrate=  26.3kbits/s speed=0.0209x elapsed=0:00:10.38    \nframe=   17 fps=1.6 q=10.0 size=       1KiB time=00:00:00.25 bitrate=  22.8kbits/s speed=0.0228x elapsed=0:00:10.94    \nframe=   19 fps=1.7 q=21.0 size=       1KiB time=00:00:00.30 bitrate=  19.0kbits/s speed=0.0261x elapsed=0:00:11.50    \nframe=   21 fps=1.7 q=18.0 size=       1KiB time=00:00:00.33 bitrate=  17.1kbits/s speed=0.0277x elapsed=0:00:12.02    \nframe=   23 fps=1.8 q=21.0 size=       1KiB time=00:00:00.36 bitrate=  15.5kbits/s speed=0.0291x elapsed=0:00:12.58    \nframe=   27 fps=2.1 q=21.0 size=       1KiB time=00:00:00.43 bitrate=  13.1kbits/s speed=0.033x elapsed=0:00:13.12    \nframe=   30 fps=2.2 q=19.0 size=       1KiB time=00:00:00.48 bitrate=  11.8kbits/s speed=0.0354x elapsed=0:00:13.65    \nframe=   33 fps=2.3 q=11.0 size=       1KiB time=00:00:00.53 bitrate=  10.7kbits/s speed=0.0375x elapsed=0:00:14.22    \nframe=   35 fps=2.4 q=22.0 size=       1KiB time=00:00:00.56 bitrate=  10.1kbits/s speed=0.0382x elapsed=0:00:14.82    \nframe=   36 fps=2.3 q=21.0 size=       1KiB time=00:00:00.58 bitrate=   9.8kbits/s speed=0.0378x elapsed=0:00:15.42    \nframe=   38 fps=2.4 q=20.0 size=       1KiB time=00:00:00.61 bitrate=   9.2kbits/s speed=0.0386x elapsed=0:00:15.97    \nframe=   39 fps=2.4 q=22.0 size=       1KiB time=00:00:00.63 bitrate=   9.0kbits/s speed=0.0383x elapsed=0:00:16.54    \nframe=   42 fps=2.5 q=19.0 size=       1KiB time=00:00:00.68 bitrate=   8.3kbits/s speed=0.04x elapsed=0:00:17.07    \nframe=   44 fps=2.5 q=19.0 size=       1KiB time=00:00:00.70 bitrate=   8.1kbits/s speed=0.0396x elapsed=0:00:17.68    \nframe=   46 fps=2.5 q=20.0 size=       1KiB time=00:00:00.75 bitrate=   7.6kbits/s speed=0.0409x elapsed=0:00:18.32    \nframe=   50 fps=2.7 q=22.0 size=       1KiB time=00:00:00.80 bitrate=   7.1kbits/s speed=0.0425x elapsed=0:00:18.84    \nframe=   51 fps=2.6 q=25.0 size=       1KiB time=00:00:00.83 bitrate=   6.8kbits/s speed=0.0429x elapsed=0:00:19.43    \nframe=   53 fps=2.6 q=22.0 size=       1KiB time=00:00:00.86 bitrate=   6.6kbits/s speed=0.0433x elapsed=0:00:20.00    \nframe=   55 fps=2.7 q=25.0 size=       1KiB time=00:00:00.90 bitrate=   6.3kbits/s speed=0.0438x elapsed=0:00:20.54    \nframe=   57 fps=2.7 q=17.0 size=       1KiB time=00:00:00.93 bitrate=   6.1kbits/s speed=0.0443x elapsed=0:00:21.07    \nframe=   59 fps=2.7 q=24.0 size=       1KiB time=00:00:00.96 bitrate=   5.9kbits/s speed=0.0447x elapsed=0:00:21.64    \nframe=   62 fps=2.8 q=19.0 size=       1KiB time=00:00:01.01 bitrate=   5.6kbits/s speed=0.0456x elapsed=0:00:22.28    \nframe=   65 fps=2.8 q=5.0 size=       1KiB time=00:00:01.06 bitrate=   5.3kbits/s speed=0.0466x elapsed=0:00:22.88    \nframe=   68 fps=2.9 q=18.0 size=       1KiB time=00:00:01.11 bitrate=   5.1kbits/s speed=0.0474x elapsed=0:00:23.57    \nframe=   70 fps=2.9 q=21.0 size=       1KiB time=00:00:01.15 bitrate=   5.0kbits/s speed=0.0476x elapsed=0:00:24.17    \nframe=   72 fps=2.9 q=22.0 size=       1KiB time=00:00:01.18 bitrate=   4.8kbits/s speed=0.0476x elapsed=0:00:24.83    \nframe=   74 fps=2.9 q=22.0 size=       1KiB time=00:00:01.21 bitrate=   4.7kbits/s speed=0.0479x elapsed=0:00:25.41    \nframe=   77 fps=3.0 q=19.0 size=       1KiB time=00:00:01.26 bitrate=   4.5kbits/s speed=0.0488x elapsed=0:00:25.96    \nframe=   81 fps=3.1 q=4.0 size=       1KiB time=00:00:01.33 bitrate=   4.3kbits/s speed=0.0503x elapsed=0:00:26.49    \nframe=   83 fps=3.1 q=23.0 size=       1KiB time=00:00:01.36 bitrate=   4.2kbits/s speed=0.0504x elapsed=0:00:27.13    \nframe=   86 fps=3.1 q=24.0 size=       1KiB time=00:00:01.40 bitrate=   4.1kbits/s speed=0.0506x elapsed=0:00:27.68    \nframe=   87 fps=3.1 q=20.0 size=       1KiB time=00:00:01.43 bitrate=   4.0kbits/s speed=0.0507x elapsed=0:00:28.28    \nframe=   90 fps=3.1 q=25.0 size=       1KiB time=00:00:01.48 bitrate=   3.8kbits/s speed=0.0514x elapsed=0:00:28.86    \nframe=   93 fps=3.2 q=18.0 size=       1KiB time=00:00:01.51 bitrate=   3.8kbits/s speed=0.0514x elapsed=0:00:29.50    \nframe=   97 fps=3.2 q=3.0 size=       1KiB time=00:00:01.58 bitrate=   3.6kbits/s speed=0.0525x elapsed=0:00:30.16    \nframe=   99 fps=3.2 q=21.0 size=       1KiB time=00:00:01.61 bitrate=   3.5kbits/s speed=0.0526x elapsed=0:00:30.73    \nframe=  101 fps=3.2 q=18.0 size=       1KiB time=00:00:01.66 bitrate=   3.4kbits/s speed=0.0531x elapsed=0:00:31.36    \nframe=  104 fps=3.3 q=25.0 size=       1KiB time=00:00:01.71 bitrate=   3.3kbits/s speed=0.0538x elapsed=0:00:31.93    \nframe=  106 fps=3.3 q=25.0 size=       1KiB time=00:00:01.75 bitrate=   3.3kbits/s speed=0.0538x elapsed=0:00:32.53    \nframe=  111 fps=3.4 q=20.0 size=       1KiB time=00:00:01.83 bitrate=   3.1kbits/s speed=0.0554x elapsed=0:00:33.07    \nframe=  113 fps=3.4 q=2.0 size=       1KiB time=00:00:01.86 bitrate=   3.1kbits/s speed=0.0555x elapsed=0:00:33.60    \nframe=  116 fps=3.4 q=24.0 size=       1KiB time=00:00:01.91 bitrate=   3.0kbits/s speed=0.0561x elapsed=0:00:34.15    \nframe=  118 fps=3.4 q=24.0 size=       1KiB time=00:00:01.95 bitrate=   2.9kbits/s speed=0.056x elapsed=0:00:34.82    \nframe=  121 fps=3.4 q=13.0 size=       1KiB time=00:00:02.00 bitrate=   2.8kbits/s speed=0.0564x elapsed=0:00:35.45    \nframe=  124 fps=3.4 q=23.0 size=       1KiB time=00:00:02.05 bitrate=   2.8kbits/s speed=0.0569x elapsed=0:00:36.03    \nframe=  128 fps=3.5 q=24.0 size=       1KiB time=00:00:02.10 bitrate=   2.7kbits/s speed=0.0573x elapsed=0:00:36.63    \nframe=  130 fps=3.5 q=24.0 size=       1KiB time=00:00:02.15 bitrate=   2.6kbits/s speed=0.0578x elapsed=0:00:37.22    \nframe=  132 fps=3.5 q=24.0 size=       1KiB time=00:00:02.18 bitrate=   2.6kbits/s speed=0.0578x elapsed=0:00:37.76    \nframe=  134 fps=3.5 q=24.0 size=       1KiB time=00:00:02.21 bitrate=   2.6kbits/s speed=0.0578x elapsed=0:00:38.32    \nframe=  137 fps=3.5 q=15.0 size=       1KiB time=00:00:02.26 bitrate=   2.5kbits/s speed=0.0582x elapsed=0:00:38.94    \nframe=  139 fps=3.5 q=23.0 size=       1KiB time=00:00:02.30 bitrate=   2.5kbits/s speed=0.0582x elapsed=0:00:39.53    \nframe=  142 fps=3.5 q=25.0 size=       1KiB time=00:00:02.35 bitrate=   2.4kbits/s speed=0.0586x elapsed=0:00:40.07    \nframe=  145 fps=3.6 q=7.0 size=       1KiB time=00:00:02.40 bitrate=   2.4kbits/s speed=0.0591x elapsed=0:00:40.59    \nframe=  147 fps=3.6 q=24.0 size=       1KiB time=00:00:02.41 bitrate=   2.4kbits/s speed=0.0587x elapsed=0:00:41.19    \nframe=  149 fps=3.6 q=20.0 size=       1KiB time=00:00:02.46 bitrate=   2.3kbits/s speed=0.059x elapsed=0:00:41.77    \nframe=  150 fps=3.5 q=26.0 size=       1KiB time=00:00:02.48 bitrate=   2.3kbits/s speed=0.0586x elapsed=0:00:42.39    \nframe=  154 fps=3.6 q=28.0 size=       1KiB time=00:00:02.55 bitrate=   2.2kbits/s speed=0.0594x elapsed=0:00:42.94    \nframe=  158 fps=3.6 q=29.0 size=       1KiB time=00:00:02.61 bitrate=   2.2kbits/s speed=0.0601x elapsed=0:00:43.53    \nframe=  161 fps=3.6 q=10.0 size=       1KiB time=00:00:02.66 bitrate=   2.1kbits/s speed=0.0603x elapsed=0:00:44.18    \nframe=  164 fps=3.7 q=30.0 size=       1KiB time=00:00:02.70 bitrate=   2.1kbits/s speed=0.0604x elapsed=0:00:44.72    \nframe=  166 fps=3.7 q=30.0 size=       1KiB time=00:00:02.75 bitrate=   2.1kbits/s speed=0.0606x elapsed=0:00:45.34    \nframe=  168 fps=3.7 q=30.0 size=       1KiB time=00:00:02.78 bitrate=   2.0kbits/s speed=0.0606x elapsed=0:00:45.94    \nframe=  171 fps=3.7 q=28.0 size=       1KiB time=00:00:02.83 bitrate=   2.0kbits/s speed=0.061x elapsed=0:00:46.46    \nframe=  174 fps=3.7 q=30.0 size=       1KiB time=00:00:02.88 bitrate=   2.0kbits/s speed=0.0613x elapsed=0:00:47.00    \nframe=  178 fps=3.7 q=31.0 size=       1KiB time=00:00:02.93 bitrate=   1.9kbits/s speed=0.0617x elapsed=0:00:47.55    \nframe=  181 fps=3.8 q=25.0 size=       1KiB time=00:00:02.98 bitrate=   1.9kbits/s speed=0.062x elapsed=0:00:48.12    \nframe=  182 fps=3.7 q=31.0 size=       1KiB time=00:00:03.01 bitrate=   1.9kbits/s speed=0.062x elapsed=0:00:48.67    \nframe=  185 fps=3.8 q=24.0 size=       1KiB time=00:00:03.06 bitrate=   1.9kbits/s speed=0.0623x elapsed=0:00:49.24    \nframe=  188 fps=3.8 q=29.0 size=       1KiB time=00:00:03.11 bitrate=   1.8kbits/s speed=0.0626x elapsed=0:00:49.82    \nframe=  192 fps=3.8 q=31.0 size=       1KiB time=00:00:03.18 bitrate=   1.8kbits/s speed=0.0631x elapsed=0:00:50.42    \nframe=  194 fps=3.8 q=31.0 size=       1KiB time=00:00:03.21 bitrate=   1.8kbits/s speed=0.0631x elapsed=0:00:50.99    \nframe=  197 fps=3.8 q=26.0 size=       1KiB time=00:00:03.26 bitrate=   1.7kbits/s speed=0.0633x elapsed=0:00:51.57    \nframe=  198 fps=3.8 q=31.0 size=       1KiB time=00:00:03.28 bitrate=   1.7kbits/s speed=0.063x elapsed=0:00:52.13    \nframe=  201 fps=3.8 q=25.0 size=       1KiB time=00:00:03.33 bitrate=   1.7kbits/s speed=0.0632x elapsed=0:00:52.75    \nframe=  205 fps=3.8 q=26.0 size=       1KiB time=00:00:03.40 bitrate=   1.7kbits/s speed=0.0637x elapsed=0:00:53.35    \nframe=  209 fps=3.9 q=18.0 size=       1KiB time=00:00:03.46 bitrate=   1.6kbits/s speed=0.0643x elapsed=0:00:53.95    \nReceived > 3 system signals, hard exiting\n",
  "seconds": 54.93069410324097
}